ply
format ascii 1.0
comment Created by Blender 2.79 (sub 0) - www.blender.org, source file: ''
element vertex 278
property float x
property float y
property float z
property float nx
property float ny
property float nz
property float s
property float t
element face 164
property list uchar uint vertex_indices
end_header
3.500000 1.000000 -0.500000 1.000000 0.000000 0.000000 0.306641 0.500000
3.500000 0.000001 3.500000 1.000000 0.000000 0.000000 0.306641 0.500000
3.500000 -0.000000 -0.500000 1.000000 0.000000 0.000000 0.306641 0.500000
3.500000 1.000000 2.500000 1.000000 0.000000 0.000000 0.306641 0.500000
3.500000 3.000000 -2.500000 1.000000 0.000000 0.000000 0.306641 0.500000
3.500000 -0.000000 -2.500000 1.000000 0.000000 0.000000 0.306641 0.500000
3.500000 -0.000001 -3.500000 1.000000 0.000000 0.000000 0.306641 0.500000
3.500000 4.000000 -3.500001 0.999969 0.000000 0.000000 0.306641 0.500000
3.500000 3.000000 0.500000 0.999969 0.000000 0.000000 0.306641 0.500000
3.500000 4.000000 -0.500001 1.000000 0.000000 0.000000 0.306641 0.500000
3.500000 4.000000 2.499999 1.000000 0.000000 0.000000 0.306641 0.500000
3.500000 4.000000 3.499999 0.999969 0.000000 0.000000 0.306641 0.500000
3.500000 6.000000 0.499999 1.000000 0.000000 0.000000 0.306641 0.500000
3.500000 7.000000 -0.500001 1.000000 0.000000 0.000000 0.306641 0.500000
3.500000 6.000000 3.499999 1.000000 0.000000 0.000000 0.306641 0.500000
3.500000 7.000000 3.499999 0.999969 0.000000 0.000000 0.306641 0.500000
1.500000 3.000000 -2.500000 1.000000 0.000000 0.000000 0.306641 0.500000
1.500000 2.000000 -2.500000 1.000000 0.000000 0.000000 0.306641 0.500000
1.500000 1.999999 -3.500000 1.000000 0.000000 0.000000 0.306641 0.500000
1.500000 4.000000 -3.500001 1.000000 0.000000 0.000000 0.306641 0.500000
1.500000 3.000000 0.500000 1.000000 0.000000 0.000000 0.306641 0.500000
1.500000 4.000000 -0.500001 1.000000 0.000000 0.000000 0.306641 0.500000
1.500000 4.000000 2.499999 1.000000 0.000000 0.000000 0.306641 0.500000
1.500000 2.000000 3.500000 1.000000 0.000000 0.000000 0.306641 0.500000
1.500000 2.000000 2.500000 1.000000 0.000000 0.000000 0.306641 0.500000
1.500000 4.000000 3.499999 1.000000 0.000000 0.000000 0.306641 0.500000
1.500000 5.000000 -0.500001 1.000000 0.000000 0.000000 0.306641 0.500000
1.500000 5.000000 0.499999 0.999969 0.000000 0.000000 0.306641 0.500000
-0.500000 0.999999 -3.500000 1.000000 0.000000 0.000000 0.306641 0.500000
-0.500000 -0.000000 -2.500000 1.000000 0.000000 0.000000 0.306641 0.500000
-0.500000 -0.000001 -3.500000 1.000000 0.000000 0.000000 0.306641 0.500000
-0.500000 1.000000 -2.500000 1.000000 0.000000 0.000000 0.306641 0.500000
-0.500000 1.000000 -0.500000 1.000000 0.000000 0.000000 0.306641 0.500000
-0.500000 0.000001 3.500000 1.000000 0.000000 0.000000 0.306641 0.500000
-0.500000 -0.000000 -0.500000 1.000000 0.000000 0.000000 0.306641 0.500000
-0.500000 1.000001 3.500000 1.000000 0.000000 0.000000 0.306641 0.500000
-2.500000 2.000000 2.500000 1.000000 0.000000 0.000000 0.306641 0.500000
-2.500000 1.000001 3.500000 0.999969 0.000000 0.000000 0.306641 0.500000
-2.500000 1.000000 2.500000 1.000000 0.000000 0.000000 0.306641 0.500000
-2.500000 2.000000 3.500000 1.000000 0.000000 0.000000 0.306641 0.500000
2.500000 0.999999 -3.500000 -1.000000 0.000000 0.000000 0.306641 0.500000
2.500000 1.000000 -2.500000 -1.000000 0.000000 0.000000 0.306641 0.500000
2.500000 3.000000 -2.500000 -1.000000 0.000000 0.000000 0.306641 0.500000
2.500000 4.000000 -3.500001 -0.999969 0.000000 0.000000 0.306641 0.500000
2.500000 3.000000 0.500000 -1.000000 0.000000 0.000000 0.306641 0.500000
2.500000 4.000000 -0.500001 -1.000000 0.000000 0.000000 0.306641 0.500000
2.500000 1.000000 2.500000 -1.000000 0.000000 0.000000 0.306641 0.500000
2.500000 1.000001 3.500000 -0.999969 0.000000 0.000000 0.306641 0.500000
2.500000 4.000000 2.499999 -1.000000 0.000000 0.000000 0.306641 0.500000
2.500000 4.000000 3.499999 -0.999969 0.000000 0.000000 0.306641 0.500000
2.500000 6.000000 -0.500001 -1.000000 0.000000 0.000000 0.306641 0.500000
2.500000 6.000000 0.499999 -0.999969 0.000000 0.000000 0.306641 0.500000
0.500000 -0.000001 -3.500000 -1.000000 0.000000 0.000000 0.306641 0.500000
0.500000 -0.000000 -2.500000 -1.000000 0.000000 0.000000 0.306641 0.500000
0.500000 0.999999 -3.500000 -1.000000 0.000000 0.000000 0.306641 0.500000
0.500000 1.000000 -2.500000 -1.000000 0.000000 0.000000 0.306641 0.500000
0.500000 -0.000000 -0.500000 -1.000000 0.000000 0.000000 0.306641 0.500000
0.500000 0.000001 3.500000 -1.000000 0.000000 0.000000 0.306641 0.500000
0.500000 1.000000 -0.500000 -1.000000 0.000000 0.000000 0.306641 0.500000
0.500000 1.000001 3.500000 -1.000000 0.000000 0.000000 0.306641 0.500000
0.500000 3.000000 -3.500000 -1.000000 0.000000 0.000000 0.306641 0.500000
0.500000 3.000000 -2.500000 -1.000000 0.000000 0.000000 0.306641 0.500000
0.500000 4.000000 -3.500001 -1.000000 0.000000 0.000000 0.306641 0.500000
0.500000 3.000000 0.500000 -0.999969 0.000000 0.000000 0.306641 0.500000
0.500000 4.000000 -0.500001 -1.000000 0.000000 0.000000 0.306641 0.500000
0.500000 4.000000 0.499999 -0.999969 0.000000 0.000000 0.306641 0.500000
0.500000 3.000000 2.500000 -1.000000 0.000000 0.000000 0.306641 0.500000
0.500000 3.000000 3.500000 -1.000000 0.000000 0.000000 0.306641 0.500000
0.500000 4.000000 2.499999 -1.000000 0.000000 0.000000 0.306641 0.500000
0.500000 4.000000 3.499999 -1.000000 0.000000 0.000000 0.306641 0.500000
-3.500000 -0.000001 -3.500000 -1.000000 0.000000 0.000000 0.306641 0.500000
-3.500000 -0.000000 -2.500000 -1.000000 0.000000 0.000000 0.306641 0.500000
-3.500000 0.999999 -3.500000 -1.000000 0.000000 0.000000 0.306641 0.500000
-3.500000 1.000000 -2.500000 -1.000000 0.000000 0.000000 0.306641 0.500000
-3.500000 -0.000000 -0.500000 -1.000000 0.000000 0.000000 0.306641 0.500000
-3.500000 0.000001 3.500000 -0.999969 0.000000 0.000000 0.306641 0.500000
-3.500000 1.000000 -0.500000 -1.000000 0.000000 0.000000 0.306641 0.500000
-3.500000 1.000000 2.500000 -1.000000 0.000000 0.000000 0.306641 0.500000
-3.500000 1.999999 -3.500000 -1.000000 0.000000 0.000000 0.306641 0.500000
-3.500000 2.000000 -2.500000 -1.000000 0.000000 0.000000 0.306641 0.500000
-3.500000 3.000000 -3.500000 -1.000000 0.000000 0.000000 0.306641 0.500000
-3.500000 3.000000 -2.500000 -1.000000 0.000000 0.000000 0.306641 0.500000
-3.500000 3.000000 2.500000 -1.000000 0.000000 0.000000 0.306641 0.500000
-3.500000 3.000000 3.500000 -0.999969 0.000000 0.000000 0.306641 0.500000
-3.500000 4.000000 -0.500001 -0.999969 0.000000 0.000000 0.306641 0.500000
-3.500000 4.000000 0.499999 -1.000000 0.000000 0.000000 0.306641 0.500000
-3.500000 5.000000 -0.500001 -1.000000 0.000000 0.000000 0.306641 0.500000
-3.500000 5.000000 0.499999 -0.999969 0.000000 0.000000 0.306641 0.500000
-3.500000 6.000000 -0.500001 -1.000000 0.000000 0.000000 0.306641 0.500000
-3.500000 6.000000 3.499999 -1.000000 0.000000 0.000000 0.306641 0.500000
-3.500000 7.000000 -0.500001 -1.000000 0.000000 0.000000 0.306641 0.500000
-3.500000 7.000000 3.499999 -0.999969 0.000000 0.000000 0.306641 0.500000
2.500000 0.999999 -3.500000 0.000000 0.000000 -1.000000 0.306641 0.500000
3.500000 4.000000 -3.500001 0.000000 0.000000 -0.999969 0.306641 0.500000
3.500000 -0.000001 -3.500000 0.000000 0.000000 -1.000000 0.306641 0.500000
2.500000 4.000000 -3.500001 0.000000 0.000000 -1.000000 0.306641 0.500000
0.500000 -0.000001 -3.500000 0.000000 0.000000 -1.000000 0.306641 0.500000
0.500000 0.999999 -3.500000 0.000000 0.000000 -1.000000 0.306641 0.500000
0.500000 3.000000 -3.500000 0.000000 0.000000 -1.000000 0.306641 0.500000
1.500000 4.000000 -3.500001 0.000000 0.000000 -1.000000 0.306641 0.500000
1.500000 1.999999 -3.500000 0.000000 0.000000 -0.999969 0.306641 0.500000
0.500000 4.000000 -3.500001 0.000000 0.000000 -1.000000 0.306641 0.500000
-3.500000 -0.000001 -3.500000 0.000000 0.000000 -0.999969 0.306641 0.500000
-0.500000 0.999999 -3.500000 0.000000 0.000000 -0.999969 0.306641 0.500000
-0.500000 -0.000001 -3.500000 0.000000 0.000000 -1.000000 0.306641 0.500000
-3.500000 0.999999 -3.500000 0.000000 0.000000 -1.000000 0.306641 0.500000
-3.500000 1.999999 -3.500000 0.000000 0.000000 -1.000000 0.306641 0.500000
-3.500000 3.000000 -3.500000 0.000000 0.000000 -1.000000 0.306641 0.500000
2.500000 4.000000 -0.500001 0.000000 0.000000 -0.999969 0.306641 0.500000
3.500000 7.000000 -0.500001 0.000000 0.000000 -1.000000 0.306641 0.500000
3.500000 4.000000 -0.500001 0.000000 0.000000 -1.000000 0.306641 0.500000
2.500000 6.000000 -0.500001 0.000000 0.000000 -1.000000 0.306641 0.500000
0.500000 -0.000000 -0.500000 0.000000 0.000000 -0.999969 0.306641 0.500000
3.500000 1.000000 -0.500000 0.000000 0.000000 -0.999969 0.306641 0.500000
3.500000 -0.000000 -0.500000 0.000000 0.000000 -1.000000 0.306641 0.500000
0.500000 1.000000 -0.500000 0.000000 0.000000 -1.000000 0.306641 0.500000
0.500000 4.000000 -0.500001 0.000000 0.000000 -1.000000 0.306641 0.500000
1.500000 5.000000 -0.500001 0.000000 0.000000 -0.999969 0.306641 0.500000
1.500000 4.000000 -0.500001 0.000000 0.000000 -1.000000 0.306641 0.500000
-3.500000 -0.000000 -0.500000 0.000000 0.000000 -0.999969 0.306641 0.500000
-0.500000 1.000000 -0.500000 0.000000 0.000000 -0.999969 0.306641 0.500000
-0.500000 -0.000000 -0.500000 0.000000 0.000000 -1.000000 0.306641 0.500000
-3.500000 1.000000 -0.500000 0.000000 0.000000 -1.000000 0.306641 0.500000
-3.500000 4.000000 -0.500001 0.000000 0.000000 -1.000000 0.306641 0.500000
-3.500000 5.000000 -0.500001 0.000000 0.000000 -1.000000 0.306641 0.500000
-3.500000 6.000000 -0.500001 0.000000 0.000000 -1.000000 0.306641 0.500000
-3.500000 7.000000 -0.500001 0.000000 0.000000 -1.000000 0.306641 0.500000
2.500000 1.000000 2.500000 0.000000 0.000000 -0.999969 0.306641 0.500000
3.500000 4.000000 2.499999 0.000000 0.000000 -0.999969 0.306641 0.500000
3.500000 1.000000 2.500000 0.000000 0.000000 -1.000000 0.306641 0.500000
2.500000 4.000000 2.499999 0.000000 0.000000 -1.000000 0.306641 0.500000
0.500000 3.000000 2.500000 0.000000 0.000000 -1.000000 0.306641 0.500000
1.500000 4.000000 2.499999 0.000000 0.000000 -1.000000 0.306641 0.500000
1.500000 2.000000 2.500000 0.000000 0.000000 -1.000000 0.306641 0.500000
0.500000 4.000000 2.499999 0.000000 0.000000 -1.000000 0.306641 0.500000
-2.500000 2.000000 2.500000 0.000000 0.000000 -1.000000 0.306641 0.500000
-3.500000 1.000000 2.500000 0.000000 0.000000 -0.999969 0.306641 0.500000
-2.500000 1.000000 2.500000 0.000000 0.000000 -1.000000 0.306641 0.500000
-3.500000 3.000000 2.500000 0.000000 0.000000 -1.000000 0.306641 0.500000
3.500000 -0.000000 -2.500000 0.000000 0.000000 1.000000 0.306641 0.500000
3.500000 3.000000 -2.500000 0.000000 0.000000 1.000000 0.306641 0.500000
2.500000 1.000000 -2.500000 0.000000 0.000000 1.000000 0.306641 0.500000
2.500000 3.000000 -2.500000 0.000000 0.000000 1.000000 0.306641 0.500000
0.500000 -0.000000 -2.500000 0.000000 0.000000 1.000000 0.306641 0.500000
0.500000 1.000000 -2.500000 0.000000 0.000000 1.000000 0.306641 0.500000
1.500000 2.000000 -2.500000 0.000000 0.000000 1.000000 0.306641 0.500000
1.500000 3.000000 -2.500000 0.000000 0.000000 1.000000 0.306641 0.500000
0.500000 3.000000 -2.500000 0.000000 0.000000 1.000000 0.306641 0.500000
-0.500000 -0.000000 -2.500000 0.000000 0.000000 1.000000 0.306641 0.500000
-0.500000 1.000000 -2.500000 0.000000 0.000000 0.999969 0.306641 0.500000
-3.500000 -0.000000 -2.500000 0.000000 0.000000 0.999969 0.306641 0.500000
-3.500000 1.000000 -2.500000 0.000000 0.000000 1.000000 0.306641 0.500000
-3.500000 2.000000 -2.500000 0.000000 0.000000 1.000000 0.306641 0.500000
-3.500000 3.000000 -2.500000 0.000000 0.000000 1.000000 0.306641 0.500000
3.500000 3.000000 0.500000 0.000000 0.000000 1.000000 0.306641 0.500000
3.500000 6.000000 0.499999 0.000000 0.000000 0.999969 0.306641 0.500000
2.500000 3.000000 0.500000 0.000000 0.000000 0.999969 0.306641 0.500000
2.500000 6.000000 0.499999 0.000000 0.000000 1.000000 0.306641 0.500000
1.500000 3.000000 0.500000 0.000000 0.000000 1.000000 0.306641 0.500000
1.500000 5.000000 0.499999 0.000000 0.000000 0.999969 0.306641 0.500000
0.500000 3.000000 0.500000 0.000000 0.000000 1.000000 0.306641 0.500000
0.500000 4.000000 0.499999 0.000000 0.000000 1.000000 0.306641 0.500000
-3.500000 4.000000 0.499999 0.000000 0.000000 1.000000 0.306641 0.500000
-3.500000 5.000000 0.499999 0.000000 0.000000 1.000000 0.306641 0.500000
3.500000 0.000001 3.500000 0.000000 0.000000 1.000000 0.306641 0.500000
3.500000 4.000000 3.499999 0.000000 0.000000 0.999969 0.306641 0.500000
2.500000 1.000001 3.500000 0.000000 0.000000 1.000000 0.306641 0.500000
2.500000 4.000000 3.499999 0.000000 0.000000 1.000000 0.306641 0.500000
0.500000 0.000001 3.500000 0.000000 0.000000 1.000000 0.306641 0.500000
0.500000 1.000001 3.500000 0.000000 0.000000 1.000000 0.306641 0.500000
1.500000 2.000000 3.500000 0.000000 0.000000 1.000000 0.306641 0.500000
1.500000 4.000000 3.499999 0.000000 0.000000 1.000000 0.306641 0.500000
0.500000 3.000000 3.500000 0.000000 0.000000 1.000000 0.306641 0.500000
0.500000 4.000000 3.499999 0.000000 0.000000 1.000000 0.306641 0.500000
-0.500000 0.000001 3.500000 0.000000 0.000000 1.000000 0.306641 0.500000
-0.500000 1.000001 3.500000 0.000000 0.000000 1.000000 0.306641 0.500000
-2.500000 1.000001 3.500000 0.000000 0.000000 1.000000 0.306641 0.500000
-2.500000 2.000000 3.500000 0.000000 0.000000 1.000000 0.306641 0.500000
-3.500000 0.000001 3.500000 0.000000 0.000000 1.000000 0.306641 0.500000
-3.500000 3.000000 3.500000 0.000000 0.000000 1.000000 0.306641 0.500000
3.500000 6.000000 3.499999 0.000000 0.000000 1.000000 0.306641 0.500000
3.500000 7.000000 3.499999 0.000000 0.000000 1.000000 0.306641 0.500000
-3.500000 6.000000 3.499999 0.000000 0.000000 1.000000 0.306641 0.500000
-3.500000 7.000000 3.499999 0.000000 0.000000 1.000000 0.306641 0.500000
3.500000 -0.000000 -2.500000 0.000000 -0.999969 0.000000 0.306641 0.500000
0.500000 -0.000001 -3.500000 0.000000 -0.999969 0.000000 0.306641 0.500000
3.500000 -0.000001 -3.500000 0.000000 -1.000000 0.000000 0.306641 0.500000
0.500000 -0.000000 -2.500000 0.000000 -1.000000 0.000000 0.306641 0.500000
-0.500000 -0.000000 -2.500000 0.000000 -0.999969 0.000000 0.306641 0.500000
-3.500000 -0.000001 -3.500000 0.000000 -0.999969 0.000000 0.306641 0.500000
-0.500000 -0.000001 -3.500000 0.000000 -1.000000 0.000000 0.306641 0.500000
-3.500000 -0.000000 -2.500000 0.000000 -1.000000 0.000000 0.306641 0.500000
3.500000 0.000001 3.500000 0.000000 -1.000000 0.000000 0.306641 0.500000
0.500000 -0.000000 -0.500000 0.000000 -1.000000 0.000000 0.306641 0.500000
3.500000 -0.000000 -0.500000 0.000000 -1.000000 0.000000 0.306641 0.500000
0.500000 0.000001 3.500000 0.000000 -1.000000 0.000000 0.306641 0.500000
-0.500000 0.000001 3.500000 0.000000 -1.000000 0.000000 0.306641 0.500000
-3.500000 -0.000000 -0.500000 0.000000 -1.000000 0.000000 0.306641 0.500000
-0.500000 -0.000000 -0.500000 0.000000 -1.000000 0.000000 0.306641 0.500000
-3.500000 0.000001 3.500000 0.000000 -1.000000 0.000000 0.306641 0.500000
1.500000 2.000000 -2.500000 0.000000 -1.000000 0.000000 0.306641 0.500000
-3.500000 1.999999 -3.500000 0.000000 -1.000000 0.000000 0.306641 0.500000
1.500000 1.999999 -3.500000 0.000000 -1.000000 0.000000 0.306641 0.500000
-3.500000 2.000000 -2.500000 0.000000 -1.000000 0.000000 0.306641 0.500000
1.500000 2.000000 3.500000 0.000000 -1.000000 0.000000 0.306641 0.500000
-2.500000 2.000000 2.500000 0.000000 -1.000000 0.000000 0.306641 0.500000
1.500000 2.000000 2.500000 0.000000 -1.000000 0.000000 0.306641 0.500000
-2.500000 2.000000 3.500000 0.000000 -1.000000 0.000000 0.306641 0.500000
3.500000 3.000000 0.500000 0.000000 -0.999969 0.000000 0.306641 0.500000
2.500000 3.000000 -2.500000 0.000000 -0.999969 0.000000 0.306641 0.500000
3.500000 3.000000 -2.500000 0.000000 -1.000000 0.000000 0.306641 0.500000
2.500000 3.000000 0.500000 0.000000 -1.000000 0.000000 0.306641 0.500000
1.500000 3.000000 0.500000 0.000000 -0.999969 0.000000 0.306641 0.500000
0.500000 3.000000 -2.500000 0.000000 -0.999969 0.000000 0.306641 0.500000
1.500000 3.000000 -2.500000 0.000000 -1.000000 0.000000 0.306641 0.500000
0.500000 3.000000 0.500000 0.000000 -1.000000 0.000000 0.306641 0.500000
0.500000 4.000000 0.499999 0.000000 -1.000000 0.000000 0.306641 0.500000
-3.500000 4.000000 -0.500001 0.000000 -1.000000 0.000000 0.306641 0.500000
0.500000 4.000000 -0.500001 0.000000 -1.000000 0.000000 0.306641 0.500000
-3.500000 4.000000 0.499999 0.000000 -1.000000 0.000000 0.306641 0.500000
2.500000 6.000000 0.499999 0.000000 -1.000000 0.000000 0.306641 0.500000
-3.500000 6.000000 -0.500001 0.000000 -1.000000 0.000000 0.306641 0.500000
2.500000 6.000000 -0.500001 0.000000 -1.000000 0.000000 0.306641 0.500000
3.500000 6.000000 3.499999 0.000000 -0.999969 0.000000 0.306641 0.500000
3.500000 6.000000 0.499999 0.000000 -1.000000 0.000000 0.306641 0.500000
-3.500000 6.000000 3.499999 0.000000 -1.000000 0.000000 0.306641 0.500000
2.500000 0.999999 -3.500000 0.000000 1.000000 0.000000 0.306641 0.500000
0.500000 0.999999 -3.500000 0.000000 1.000000 0.000000 0.306641 0.500000
2.500000 1.000000 -2.500000 0.000000 1.000000 0.000000 0.306641 0.500000
0.500000 1.000000 -2.500000 0.000000 1.000000 0.000000 0.306641 0.500000
-0.500000 0.999999 -3.500000 0.000000 1.000000 0.000000 0.306641 0.500000
-3.500000 0.999999 -3.500000 0.000000 0.999969 0.000000 0.306641 0.500000
-0.500000 1.000000 -2.500000 0.000000 0.999969 0.000000 0.306641 0.500000
-3.500000 1.000000 -2.500000 0.000000 1.000000 0.000000 0.306641 0.500000
3.500000 1.000000 -0.500000 0.000000 1.000000 0.000000 0.306641 0.500000
0.500000 1.000000 -0.500000 0.000000 1.000000 0.000000 0.306641 0.500000
3.500000 1.000000 2.500000 0.000000 1.000000 0.000000 0.306641 0.500000
2.500000 1.000000 2.500000 0.000000 1.000000 0.000000 0.306641 0.500000
-0.500000 1.000000 -0.500000 0.000000 1.000000 0.000000 0.306641 0.500000
-3.500000 1.000000 -0.500000 0.000000 0.999969 0.000000 0.306641 0.500000
-2.500000 1.000000 2.500000 0.000000 1.000000 0.000000 0.306641 0.500000
-3.500000 1.000000 2.500000 0.000000 1.000000 0.000000 0.306641 0.500000
2.500000 1.000001 3.500000 0.000000 1.000000 0.000000 0.306641 0.500000
0.500000 1.000001 3.500000 0.000000 1.000000 0.000000 0.306641 0.500000
-0.500000 1.000001 3.500000 0.000000 1.000000 0.000000 0.306641 0.500000
-2.500000 1.000001 3.500000 0.000000 1.000000 0.000000 0.306641 0.500000
0.500000 3.000000 -3.500000 0.000000 1.000000 0.000000 0.306641 0.500000
-3.500000 3.000000 -3.500000 0.000000 1.000000 0.000000 0.306641 0.500000
0.500000 3.000000 -2.500000 0.000000 1.000000 0.000000 0.306641 0.500000
-3.500000 3.000000 -2.500000 0.000000 1.000000 0.000000 0.306641 0.500000
0.500000 3.000000 2.500000 0.000000 1.000000 0.000000 0.306641 0.500000
-3.500000 3.000000 2.500000 0.000000 1.000000 0.000000 0.306641 0.500000
0.500000 3.000000 3.500000 0.000000 1.000000 0.000000 0.306641 0.500000
-3.500000 3.000000 3.500000 0.000000 1.000000 0.000000 0.306641 0.500000
3.500000 4.000000 -3.500001 0.000000 1.000000 0.000000 0.306641 0.500000
2.500000 4.000000 -3.500001 0.000000 0.999969 0.000000 0.306641 0.500000
3.500000 4.000000 -0.500001 0.000000 0.999969 0.000000 0.306641 0.500000
2.500000 4.000000 -0.500001 0.000000 1.000000 0.000000 0.306641 0.500000
1.500000 4.000000 -3.500001 0.000000 1.000000 0.000000 0.306641 0.500000
0.500000 4.000000 -3.500001 0.000000 0.999969 0.000000 0.306641 0.500000
1.500000 4.000000 -0.500001 0.000000 0.999969 0.000000 0.306641 0.500000
0.500000 4.000000 -0.500001 0.000000 1.000000 0.000000 0.306641 0.500000
3.500000 4.000000 2.499999 0.000000 1.000000 0.000000 0.306641 0.500000
2.500000 4.000000 2.499999 0.000000 1.000000 0.000000 0.306641 0.500000
3.500000 4.000000 3.499999 0.000000 1.000000 0.000000 0.306641 0.500000
2.500000 4.000000 3.499999 0.000000 1.000000 0.000000 0.306641 0.500000
1.500000 4.000000 2.499999 0.000000 1.000000 0.000000 0.306641 0.500000
0.500000 4.000000 2.499999 0.000000 1.000000 0.000000 0.306641 0.500000
1.500000 4.000000 3.499999 0.000000 1.000000 0.000000 0.306641 0.500000
0.500000 4.000000 3.499999 0.000000 1.000000 0.000000 0.306641 0.500000
1.500000 5.000000 -0.500001 0.000000 1.000000 0.000000 0.306641 0.500000
-3.500000 5.000000 -0.500001 0.000000 1.000000 0.000000 0.306641 0.500000
1.500000 5.000000 0.499999 0.000000 1.000000 0.000000 0.306641 0.500000
-3.500000 5.000000 0.499999 0.000000 1.000000 0.000000 0.306641 0.500000
3.500000 7.000000 -0.500001 0.000000 1.000000 0.000000 0.306641 0.500000
-3.500000 7.000000 -0.500001 0.000000 1.000000 0.000000 0.306641 0.500000
3.500000 7.000000 3.499999 0.000000 1.000000 0.000000 0.306641 0.500000
-3.500000 7.000000 3.499999 0.000000 1.000000 0.000000 0.306641 0.500000
3 0 1 2
3 3 1 0
3 4 5 6
3 7 4 6
3 7 8 4
3 9 8 7
3 10 1 3
3 11 1 10
3 12 8 9
3 13 12 9
3 13 14 12
3 15 14 13
3 16 17 18
3 19 16 18
3 19 20 16
3 21 20 19
3 22 23 24
3 25 23 22
3 26 20 21
3 27 20 26
3 28 29 30
3 31 29 28
3 32 33 34
3 35 33 32
3 36 37 38
3 39 37 36
3 40 41 42
3 40 42 43
3 42 44 43
3 43 44 45
3 46 47 48
3 48 47 49
3 45 44 50
3 50 44 51
3 52 53 54
3 54 53 55
3 56 57 58
3 58 57 59
3 60 61 62
3 61 63 62
3 62 63 64
3 64 63 65
3 66 67 68
3 68 67 69
3 70 71 72
3 72 71 73
3 74 75 76
3 76 75 77
3 78 79 80
3 80 79 81
3 77 75 82
3 82 75 83
3 84 85 86
3 86 85 87
3 88 89 90
3 90 89 91
3 92 93 94
3 95 93 92
3 96 92 94
3 97 92 96
3 98 99 100
3 101 99 98
3 102 103 104
3 105 103 102
3 106 98 100
3 107 98 106
3 108 109 110
3 111 109 108
3 112 113 114
3 115 113 112
3 116 117 118
3 119 120 121
3 122 120 119
3 123 117 116
3 124 117 123
3 125 109 111
3 126 109 125
3 127 128 129
3 130 128 127
3 131 132 133
3 134 132 131
3 135 131 133
3 136 135 137
3 138 131 135
3 138 135 136
3 139 140 141
3 141 140 142
3 139 141 143
3 143 141 144
3 145 146 147
3 148 149 150
3 150 149 151
3 145 147 152
3 152 147 153
3 154 155 156
3 156 155 157
3 158 159 160
3 160 159 161
3 161 159 162
3 162 159 163
3 164 165 166
3 166 165 167
3 164 166 168
3 168 166 169
3 170 171 172
3 172 171 173
3 174 175 176
3 170 172 177
3 174 176 178
3 176 177 178
3 177 172 179
3 178 177 179
3 180 181 182
3 182 181 183
3 184 185 186
3 187 185 184
3 188 189 190
3 191 189 188
3 192 193 194
3 195 193 192
3 196 197 198
3 199 197 196
3 200 201 202
3 203 201 200
3 204 205 206
3 207 205 204
3 208 209 210
3 211 209 208
3 212 213 214
3 215 213 212
3 216 217 218
3 219 217 216
3 220 221 222
3 223 220 224
3 225 221 220
3 225 220 223
3 226 227 228
3 228 227 229
3 230 231 232
3 232 231 233
3 234 235 236
3 236 235 237
3 238 239 240
3 240 239 241
3 237 235 242
3 242 235 243
3 238 240 244
3 244 240 245
3 246 247 248
3 248 247 249
3 250 251 252
3 252 251 253
3 254 255 256
3 256 255 257
3 258 259 260
3 260 259 261
3 262 263 264
3 264 263 265
3 266 267 268
3 268 267 269
3 270 271 272
3 272 271 273
3 274 275 276
3 276 275 277
