ply
format ascii 1.0
comment Created by Blender 2.79 (sub 0) - www.blender.org, source file: ''
element vertex 293
property float x
property float y
property float z
property float nx
property float ny
property float nz
property float s
property float t
property uchar red
property uchar green
property uchar blue
element face 164
property list uchar uint vertex_indices
end_header
3.500000 1.000000 -0.500000 1.000000 -0.000000 0.000000 0.306641 0.500000 255 255 255
3.500000 0.000001 3.500000 1.000000 -0.000000 0.000000 0.306641 0.500000 255 255 255
3.500000 0.000000 -0.500000 1.000000 -0.000000 0.000000 0.306641 0.500000 255 255 255
3.500000 1.000000 2.500000 1.000000 0.000000 0.000000 0.306641 0.500000 255 255 255
3.500000 3.000000 -2.500000 1.000000 0.000000 0.000000 0.306641 0.500000 255 255 255
3.500000 0.000000 -2.500000 1.000000 0.000000 0.000000 0.306641 0.500000 255 255 255
3.500000 -0.000001 -3.500000 1.000000 0.000000 0.000000 0.306641 0.500000 255 255 255
3.500000 4.000000 -3.500001 1.000000 -0.000000 0.000000 0.306641 0.500000 255 255 255
3.500000 3.000000 0.500000 1.000000 -0.000000 0.000000 0.306641 0.500000 255 255 255
3.500000 4.000000 -0.500001 1.000000 -0.000000 -0.000000 0.306641 0.500000 255 255 255
3.500000 4.000000 2.499999 1.000000 -0.000000 -0.000000 0.306641 0.500000 255 255 255
3.500000 4.000000 3.499999 1.000000 -0.000000 -0.000000 0.306641 0.500000 255 255 255
3.500000 6.000000 0.499999 1.000000 -0.000000 -0.000000 0.306641 0.500000 255 255 255
3.500000 7.000000 -0.500001 1.000000 -0.000000 0.000000 0.306641 0.500000 255 255 255
3.500000 6.000000 3.499999 1.000000 -0.000000 0.000000 0.306641 0.500000 255 255 255
3.500000 7.000000 3.499999 1.000000 0.000000 -0.000000 0.306641 0.500000 255 255 255
1.500000 3.000000 -2.500000 1.000000 0.000000 0.000000 0.306641 0.500000 255 255 255
1.500000 2.000000 -2.500000 1.000000 0.000000 0.000000 0.306641 0.500000 255 255 255
1.500000 1.999999 -3.500000 1.000000 0.000000 0.000000 0.306641 0.500000 255 255 255
1.500000 4.000000 -3.500001 1.000000 -0.000000 0.000000 0.306641 0.500000 255 255 255
1.500000 3.000000 0.500000 1.000000 -0.000000 0.000000 0.306641 0.500000 255 255 255
1.500000 4.000000 -0.500001 1.000000 -0.000000 -0.000000 0.306641 0.500000 255 255 255
1.500000 4.000000 2.499999 1.000000 -0.000000 0.000000 0.306641 0.500000 255 255 255
1.500000 2.000000 3.500000 1.000000 -0.000000 0.000000 0.306641 0.500000 255 255 255
1.500000 2.000000 2.500000 1.000000 -0.000000 0.000000 0.306641 0.500000 255 255 255
1.500000 4.000000 3.499999 1.000000 -0.000000 -0.000000 0.306641 0.500000 255 255 255
1.500000 5.000000 -0.500001 1.000000 -0.000000 -0.000000 0.306641 0.500000 255 255 255
1.500000 5.000000 0.499999 1.000000 -0.000000 -0.000000 0.306641 0.500000 255 255 255
-0.500000 0.999999 -3.500000 -1.000000 0.000000 -0.000000 0.306641 0.500000 255 255 255
-0.500000 -0.000001 -3.500000 -1.000000 0.000000 -0.000000 0.306641 0.500000 255 255 255
-0.500000 0.000000 -2.500000 -1.000000 0.000000 -0.000000 0.306641 0.500000 255 255 255
-0.500000 1.000000 -2.500000 -1.000000 0.000000 0.000000 0.306641 0.500000 255 255 255
-0.500000 1.000000 -0.500000 -1.000000 0.000000 -0.000000 0.306641 0.500000 255 255 255
-0.500000 0.000000 -0.500000 -1.000000 0.000000 -0.000000 0.306641 0.500000 255 255 255
-0.500000 0.000001 3.500000 -1.000000 0.000000 -0.000000 0.306641 0.500000 255 255 255
-0.500000 1.000001 3.500000 -1.000000 0.000000 0.000000 0.306641 0.500000 255 255 255
-2.500000 2.000000 2.500000 -1.000000 0.000000 -0.000000 0.306641 0.500000 255 255 255
-2.500000 1.000000 2.500000 -1.000000 0.000000 -0.000000 0.306641 0.500000 255 255 255
-2.500000 1.000001 3.500000 -1.000000 0.000000 -0.000000 0.306641 0.500000 255 255 255
-2.500000 2.000000 3.500000 -1.000000 0.000000 0.000000 0.306641 0.500000 255 255 255
2.500000 0.999999 -3.500000 1.000000 -0.000000 0.000000 0.306641 0.500000 255 255 255
2.500000 3.000000 -2.500000 1.000000 -0.000000 0.000000 0.306641 0.500000 255 255 255
2.500000 1.000000 -2.500000 1.000000 -0.000000 0.000000 0.306641 0.500000 255 255 255
2.500000 4.000000 -3.500001 1.000000 0.000000 0.000000 0.306641 0.500000 255 255 255
2.500000 3.000000 0.500000 1.000000 0.000000 0.000000 0.306641 0.500000 255 255 255
2.500000 4.000000 -0.500001 1.000000 0.000000 0.000000 0.306641 0.500000 255 255 255
2.500000 1.000000 2.500000 1.000000 0.000000 0.000000 0.306641 0.500000 255 255 255
2.500000 4.000000 2.499999 1.000000 0.000000 0.000000 0.306641 0.500000 255 255 255
2.500000 1.000001 3.500000 1.000000 0.000000 0.000000 0.306641 0.500000 255 255 255
2.500000 4.000000 3.499999 1.000000 0.000000 0.000000 0.306641 0.500000 255 255 255
2.500000 6.000000 -0.500001 1.000000 0.000000 0.000000 0.306641 0.500000 255 255 255
2.500000 6.000000 0.499999 1.000000 0.000000 0.000000 0.306641 0.500000 255 255 255
0.500000 -0.000001 -3.500000 1.000000 0.000000 0.000000 0.306641 0.500000 255 255 255
0.500000 0.999999 -3.500000 1.000000 0.000000 0.000000 0.306641 0.500000 255 255 255
0.500000 0.000000 -2.500000 1.000000 0.000000 0.000000 0.306641 0.500000 255 255 255
0.500000 1.000000 -2.500000 1.000000 -0.000000 0.000000 0.306641 0.500000 255 255 255
0.500000 0.000000 -0.500000 1.000000 0.000000 0.000000 0.306641 0.500000 255 255 255
0.500000 1.000000 -0.500000 1.000000 0.000000 0.000000 0.306641 0.500000 255 255 255
0.500000 0.000001 3.500000 1.000000 0.000000 0.000000 0.306641 0.500000 255 255 255
0.500000 1.000001 3.500000 1.000000 -0.000000 0.000000 0.306641 0.500000 255 255 255
0.500000 3.000000 -3.500000 1.000000 0.000000 0.000000 0.306641 0.500000 255 255 255
0.500000 4.000000 -3.500001 1.000000 0.000000 0.000000 0.306641 0.500000 255 255 255
0.500000 3.000000 -2.500000 1.000000 0.000000 0.000000 0.306641 0.500000 255 255 255
0.500000 3.000000 0.500000 1.000000 0.000000 0.000000 0.306641 0.500000 255 255 255
0.500000 4.000000 -0.500001 1.000000 0.000000 0.000000 0.306641 0.500000 255 255 255
0.500000 4.000000 0.499999 1.000000 0.000000 0.000000 0.306641 0.500000 255 255 255
0.500000 3.000000 2.500000 1.000000 0.000000 0.000000 0.306641 0.500000 255 255 255
0.500000 4.000000 2.499999 1.000000 0.000000 0.000000 0.306641 0.500000 255 255 255
0.500000 3.000000 3.500000 1.000000 0.000000 0.000000 0.306641 0.500000 255 255 255
0.500000 4.000000 3.499999 1.000000 0.000000 0.000000 0.306641 0.500000 255 255 255
-3.500000 -0.000001 -3.500000 -1.000000 -0.000000 0.000000 0.306641 0.500000 255 255 255
-3.500000 0.000000 -2.500000 -1.000000 -0.000000 0.000000 0.306641 0.500000 255 255 255
-3.500000 0.999999 -3.500000 -1.000000 -0.000000 0.000000 0.306641 0.500000 255 255 255
-3.500000 1.000000 -2.500000 -1.000000 -0.000000 -0.000000 0.306641 0.500000 255 255 255
-3.500000 0.000000 -0.500000 -1.000000 -0.000000 0.000000 0.306641 0.500000 255 255 255
-3.500000 0.000001 3.500000 -1.000000 -0.000000 0.000000 0.306641 0.500000 255 255 255
-3.500000 1.000000 -0.500000 -1.000000 -0.000000 0.000000 0.306641 0.500000 255 255 255
-3.500000 1.000000 2.500000 -1.000000 -0.000000 -0.000000 0.306641 0.500000 255 255 255
-3.500000 1.999999 -3.500000 -1.000000 -0.000000 0.000000 0.306641 0.500000 255 255 255
-3.500000 2.000000 -2.500000 -1.000000 -0.000000 0.000000 0.306641 0.500000 255 255 255
-3.500000 3.000000 -3.500000 -1.000000 -0.000000 0.000000 0.306641 0.500000 255 255 255
-3.500000 3.000000 -2.500000 -1.000000 -0.000000 -0.000000 0.306641 0.500000 255 255 255
-3.500000 3.000000 2.500000 -1.000000 -0.000000 -0.000000 0.306641 0.500000 255 255 255
-3.500000 3.000000 3.500000 -1.000000 -0.000000 -0.000000 0.306641 0.500000 255 255 255
-3.500000 4.000000 -0.500001 -1.000000 -0.000000 -0.000000 0.306641 0.500000 255 255 255
-3.500000 4.000000 0.499999 -1.000000 -0.000000 -0.000000 0.306641 0.500000 255 255 255
-3.500000 5.000000 -0.500001 -1.000000 -0.000000 -0.000000 0.306641 0.500000 255 255 255
-3.500000 5.000000 0.499999 -1.000000 -0.000000 -0.000000 0.306641 0.500000 255 255 255
-3.500000 6.000000 -0.500001 -1.000000 -0.000000 -0.000000 0.306641 0.500000 255 255 255
-3.500000 6.000000 3.499999 -1.000000 -0.000000 -0.000000 0.306641 0.500000 255 255 255
-3.500000 7.000000 -0.500001 -1.000000 -0.000000 -0.000000 0.306641 0.500000 255 255 255
-3.500000 7.000000 3.499999 -1.000000 -0.000000 -0.000000 0.306641 0.500000 255 255 255
2.500000 0.999999 -3.500000 -0.000000 -0.000000 -1.000000 0.306641 0.500000 255 255 255
3.500000 4.000000 -3.500001 -0.000000 -0.000000 -1.000000 0.306641 0.500000 255 255 255
3.500000 -0.000001 -3.500000 -0.000000 -0.000000 -1.000000 0.306641 0.500000 255 255 255
2.500000 4.000000 -3.500001 -0.000000 -0.000000 -1.000000 0.306641 0.500000 255 255 255
0.500000 -0.000001 -3.500000 -0.000000 0.000000 -1.000000 0.306641 0.500000 255 255 255
0.500000 0.999999 -3.500000 0.000000 0.000000 -1.000000 0.306641 0.500000 255 255 255
0.500000 3.000000 -3.500000 -0.000000 -0.000000 -1.000000 0.306641 0.500000 255 255 255
1.500000 4.000000 -3.500001 -0.000000 -0.000000 -1.000000 0.306641 0.500000 255 255 255
1.500000 1.999999 -3.500000 -0.000000 -0.000000 -1.000000 0.306641 0.500000 255 255 255
0.500000 4.000000 -3.500001 -0.000000 -0.000001 -1.000000 0.306641 0.500000 255 255 255
1.500000 4.000000 -3.500001 -0.000000 -0.000001 -1.000000 0.306641 0.500000 255 255 255
0.500000 3.000000 -3.500000 -0.000000 -0.000001 -1.000000 0.306641 0.500000 255 255 255
-3.500000 -0.000001 -3.500000 -0.000000 0.000000 -1.000000 0.306641 0.500000 255 255 255
-0.500000 0.999999 -3.500000 -0.000000 0.000000 -1.000000 0.306641 0.500000 255 255 255
-0.500000 -0.000001 -3.500000 -0.000000 0.000000 -1.000000 0.306641 0.500000 255 255 255
-3.500000 0.999999 -3.500000 0.000000 0.000000 -1.000000 0.306641 0.500000 255 255 255
-3.500000 1.999999 -3.500000 -0.000000 0.000000 -1.000000 0.306641 0.500000 255 255 255
-3.500000 3.000000 -3.500000 0.000000 0.000000 -1.000000 0.306641 0.500000 255 255 255
2.500000 4.000000 -0.500001 -0.000000 0.000000 -1.000000 0.306641 0.500000 255 255 255
3.500000 7.000000 -0.500001 -0.000000 0.000000 -1.000000 0.306641 0.500000 255 255 255
3.500000 4.000000 -0.500001 -0.000000 0.000000 -1.000000 0.306641 0.500000 255 255 255
2.500000 6.000000 -0.500001 -0.000000 0.000000 -1.000000 0.306641 0.500000 255 255 255
0.500000 0.000000 -0.500000 -0.000000 0.000000 -1.000000 0.306641 0.500000 255 255 255
3.500000 1.000000 -0.500000 -0.000000 0.000000 -1.000000 0.306641 0.500000 255 255 255
3.500000 0.000000 -0.500000 -0.000000 0.000000 -1.000000 0.306641 0.500000 255 255 255
0.500000 1.000000 -0.500000 0.000000 0.000000 -1.000000 0.306641 0.500000 255 255 255
0.500000 4.000000 -0.500001 -0.000000 0.000000 -1.000000 0.306641 0.500000 255 255 255
1.500000 5.000000 -0.500001 -0.000000 0.000000 -1.000000 0.306641 0.500000 255 255 255
1.500000 4.000000 -0.500001 -0.000000 0.000000 -1.000000 0.306641 0.500000 255 255 255
-3.500000 0.000000 -0.500000 -0.000000 0.000000 -1.000000 0.306641 0.500000 255 255 255
-0.500000 1.000000 -0.500000 -0.000000 0.000000 -1.000000 0.306641 0.500000 255 255 255
-0.500000 0.000000 -0.500000 -0.000000 0.000000 -1.000000 0.306641 0.500000 255 255 255
-3.500000 1.000000 -0.500000 0.000000 0.000000 -1.000000 0.306641 0.500000 255 255 255
-3.500000 4.000000 -0.500001 -0.000000 0.000000 -1.000000 0.306641 0.500000 255 255 255
-3.500000 5.000000 -0.500001 0.000000 0.000000 -1.000000 0.306641 0.500000 255 255 255
-3.500000 6.000000 -0.500001 -0.000000 0.000000 -1.000000 0.306641 0.500000 255 255 255
-3.500000 7.000000 -0.500001 0.000000 0.000000 -1.000000 0.306641 0.500000 255 255 255
2.500000 1.000000 2.500000 0.000000 0.000000 1.000000 0.306641 0.500000 255 255 255
3.500000 1.000000 2.500000 0.000000 0.000000 1.000000 0.306641 0.500000 255 255 255
3.500000 4.000000 2.499999 0.000000 0.000000 1.000000 0.306641 0.500000 255 255 255
2.500000 4.000000 2.499999 0.000000 0.000000 1.000000 0.306641 0.500000 255 255 255
0.500000 3.000000 2.500000 0.000000 0.000000 1.000000 0.306641 0.500000 255 255 255
1.500000 2.000000 2.500000 0.000000 0.000000 1.000000 0.306641 0.500000 255 255 255
1.500000 4.000000 2.499999 0.000000 0.000000 1.000000 0.306641 0.500000 255 255 255
0.500000 4.000000 2.499999 0.000000 0.000001 1.000000 0.306641 0.500000 255 255 255
0.500000 3.000000 2.500000 0.000000 0.000001 1.000000 0.306641 0.500000 255 255 255
1.500000 4.000000 2.499999 0.000000 0.000001 1.000000 0.306641 0.500000 255 255 255
-2.500000 2.000000 2.500000 0.000000 0.000000 1.000000 0.306641 0.500000 255 255 255
-3.500000 1.000000 2.500000 0.000000 0.000000 1.000000 0.306641 0.500000 255 255 255
-2.500000 1.000000 2.500000 0.000000 0.000000 1.000000 0.306641 0.500000 255 255 255
-3.500000 3.000000 2.500000 0.000000 0.000000 1.000000 0.306641 0.500000 255 255 255
3.500000 0.000000 -2.500000 0.000000 -0.000000 -1.000000 0.306641 0.500000 255 255 255
2.500000 1.000000 -2.500000 0.000000 -0.000000 -1.000000 0.306641 0.500000 255 255 255
3.500000 3.000000 -2.500000 0.000000 -0.000000 -1.000000 0.306641 0.500000 255 255 255
2.500000 3.000000 -2.500000 -0.000000 -0.000000 -1.000000 0.306641 0.500000 255 255 255
0.500000 0.000000 -2.500000 0.000000 -0.000000 -1.000000 0.306641 0.500000 255 255 255
0.500000 1.000000 -2.500000 -0.000000 -0.000000 -1.000000 0.306641 0.500000 255 255 255
1.500000 2.000000 -2.500000 -0.000000 -0.000000 -1.000000 0.306641 0.500000 255 255 255
0.500000 3.000000 -2.500000 -0.000000 -0.000000 -1.000000 0.306641 0.500000 255 255 255
1.500000 3.000000 -2.500000 -0.000000 -0.000000 -1.000000 0.306641 0.500000 255 255 255
-0.500000 0.000000 -2.500000 0.000000 -0.000000 -1.000000 0.306641 0.500000 255 255 255
-3.500000 0.000000 -2.500000 0.000000 -0.000000 -1.000000 0.306641 0.500000 255 255 255
-0.500000 1.000000 -2.500000 0.000000 -0.000000 -1.000000 0.306641 0.500000 255 255 255
-3.500000 1.000000 -2.500000 -0.000000 -0.000000 -1.000000 0.306641 0.500000 255 255 255
-3.500000 2.000000 -2.500000 0.000000 -0.000000 -1.000000 0.306641 0.500000 255 255 255
-3.500000 3.000000 -2.500000 -0.000000 -0.000000 -1.000000 0.306641 0.500000 255 255 255
3.500000 3.000000 0.500000 0.000000 0.000000 1.000000 0.306641 0.500000 255 255 255
3.500000 6.000000 0.499999 0.000000 0.000000 1.000000 0.306641 0.500000 255 255 255
2.500000 3.000000 0.500000 0.000000 0.000000 1.000000 0.306641 0.500000 255 255 255
2.500000 6.000000 0.499999 -0.000000 0.000000 1.000000 0.306641 0.500000 255 255 255
1.500000 3.000000 0.500000 0.000000 0.000001 1.000000 0.306641 0.500000 255 255 255
1.500000 5.000000 0.499999 0.000000 0.000001 1.000000 0.306641 0.500000 255 255 255
0.500000 3.000000 0.500000 0.000000 0.000001 1.000000 0.306641 0.500000 255 255 255
0.500000 3.000000 0.500000 -0.000001 0.000001 1.000000 0.306641 0.500000 255 255 255
1.500000 5.000000 0.499999 -0.000001 0.000001 1.000000 0.306641 0.500000 255 255 255
0.500000 4.000000 0.499999 -0.000001 0.000001 1.000000 0.306641 0.500000 255 255 255
0.500000 4.000000 0.499999 -0.000000 0.000000 1.000000 0.306641 0.500000 255 255 255
1.500000 5.000000 0.499999 -0.000000 0.000000 1.000000 0.306641 0.500000 255 255 255
-3.500000 4.000000 0.499999 -0.000000 0.000000 1.000000 0.306641 0.500000 255 255 255
-3.500000 5.000000 0.499999 -0.000000 0.000000 1.000000 0.306641 0.500000 255 255 255
3.500000 0.000001 3.500000 0.000000 0.000000 1.000000 0.306641 0.500000 255 255 255
3.500000 4.000000 3.499999 0.000000 0.000000 1.000000 0.306641 0.500000 255 255 255
2.500000 1.000001 3.500000 0.000000 0.000000 1.000000 0.306641 0.500000 255 255 255
2.500000 4.000000 3.499999 -0.000000 0.000000 1.000000 0.306641 0.500000 255 255 255
0.500000 0.000001 3.500000 -0.000000 0.000000 1.000000 0.306641 0.500000 255 255 255
0.500000 1.000001 3.500000 -0.000000 0.000000 1.000000 0.306641 0.500000 255 255 255
1.500000 2.000000 3.500000 0.000000 0.000000 1.000000 0.306641 0.500000 255 255 255
1.500000 4.000000 3.499999 0.000000 0.000000 1.000000 0.306641 0.500000 255 255 255
0.500000 3.000000 3.500000 0.000000 0.000000 1.000000 0.306641 0.500000 255 255 255
0.500000 3.000000 3.500000 -0.000000 0.000001 1.000000 0.306641 0.500000 255 255 255
1.500000 4.000000 3.499999 -0.000000 0.000001 1.000000 0.306641 0.500000 255 255 255
0.500000 4.000000 3.499999 -0.000000 0.000001 1.000000 0.306641 0.500000 255 255 255
-0.500000 0.000001 3.500000 -0.000000 0.000000 1.000000 0.306641 0.500000 255 255 255
-0.500000 1.000001 3.500000 -0.000000 0.000000 1.000000 0.306641 0.500000 255 255 255
-2.500000 1.000001 3.500000 -0.000000 0.000000 1.000000 0.306641 0.500000 255 255 255
-2.500000 2.000000 3.500000 -0.000000 0.000000 1.000000 0.306641 0.500000 255 255 255
-3.500000 0.000001 3.500000 -0.000000 0.000000 1.000000 0.306641 0.500000 255 255 255
-3.500000 3.000000 3.500000 -0.000000 0.000000 1.000000 0.306641 0.500000 255 255 255
3.500000 6.000000 3.499999 -0.000000 0.000000 1.000000 0.306641 0.500000 255 255 255
3.500000 7.000000 3.499999 -0.000000 0.000000 1.000000 0.306641 0.500000 255 255 255
-3.500000 6.000000 3.499999 -0.000000 0.000000 1.000000 0.306641 0.500000 255 255 255
-3.500000 7.000000 3.499999 -0.000000 0.000000 1.000000 0.306641 0.500000 255 255 255
3.500000 0.000000 -2.500000 0.000000 1.000000 -0.000001 0.306641 0.500000 255 255 255
3.500000 -0.000001 -3.500000 0.000000 1.000000 -0.000001 0.306641 0.500000 255 255 255
0.500000 -0.000001 -3.500000 0.000000 1.000000 -0.000001 0.306641 0.500000 255 255 255
0.500000 0.000000 -2.500000 0.000000 1.000000 -0.000001 0.306641 0.500000 255 255 255
-0.500000 0.000000 -2.500000 0.000000 1.000000 -0.000001 0.306641 0.500000 255 255 255
-0.500000 -0.000001 -3.500000 0.000000 1.000000 -0.000001 0.306641 0.500000 255 255 255
-3.500000 -0.000001 -3.500000 0.000000 1.000000 -0.000001 0.306641 0.500000 255 255 255
-3.500000 0.000000 -2.500000 0.000000 1.000000 -0.000001 0.306641 0.500000 255 255 255
3.500000 0.000001 3.500000 0.000000 1.000000 -0.000000 0.306641 0.500000 255 255 255
3.500000 0.000000 -0.500000 0.000000 1.000000 -0.000000 0.306641 0.500000 255 255 255
0.500000 0.000000 -0.500000 0.000000 1.000000 -0.000000 0.306641 0.500000 255 255 255
0.500000 0.000001 3.500000 0.000000 1.000000 -0.000000 0.306641 0.500000 255 255 255
-0.500000 0.000001 3.500000 0.000000 1.000000 -0.000000 0.306641 0.500000 255 255 255
-0.500000 0.000000 -0.500000 0.000000 1.000000 -0.000000 0.306641 0.500000 255 255 255
-3.500000 0.000000 -0.500000 0.000000 1.000000 -0.000000 0.306641 0.500000 255 255 255
-3.500000 0.000001 3.500000 0.000000 1.000000 -0.000000 0.306641 0.500000 255 255 255
1.500000 2.000000 -2.500000 0.000000 1.000000 -0.000001 0.306641 0.500000 255 255 255
1.500000 1.999999 -3.500000 0.000000 1.000000 -0.000001 0.306641 0.500000 255 255 255
-3.500000 1.999999 -3.500000 0.000000 1.000000 -0.000001 0.306641 0.500000 255 255 255
-3.500000 2.000000 -2.500000 0.000000 1.000000 -0.000001 0.306641 0.500000 255 255 255
1.500000 2.000000 3.500000 0.000000 1.000000 0.000000 0.306641 0.500000 255 255 255
1.500000 2.000000 2.500000 0.000000 1.000000 0.000000 0.306641 0.500000 255 255 255
-2.500000 2.000000 2.500000 0.000000 1.000000 0.000000 0.306641 0.500000 255 255 255
-2.500000 2.000000 3.500000 0.000000 1.000000 -0.000000 0.306641 0.500000 255 255 255
3.500000 3.000000 0.500000 0.000000 1.000000 0.000000 0.306641 0.500000 255 255 255
3.500000 3.000000 -2.500000 0.000000 1.000000 0.000000 0.306641 0.500000 255 255 255
2.500000 3.000000 -2.500000 0.000000 1.000000 0.000000 0.306641 0.500000 255 255 255
2.500000 3.000000 0.500000 0.000000 1.000000 -0.000000 0.306641 0.500000 255 255 255
1.500000 3.000000 0.500000 0.000000 1.000000 0.000000 0.306641 0.500000 255 255 255
1.500000 3.000000 -2.500000 0.000000 1.000000 0.000000 0.306641 0.500000 255 255 255
0.500000 3.000000 -2.500000 0.000000 1.000000 0.000000 0.306641 0.500000 255 255 255
0.500000 3.000000 0.500000 0.000000 1.000000 -0.000000 0.306641 0.500000 255 255 255
0.500000 4.000000 0.499999 0.000000 1.000000 0.000000 0.306641 0.500000 255 255 255
0.500000 4.000000 -0.500001 0.000000 1.000000 0.000000 0.306641 0.500000 255 255 255
-3.500000 4.000000 -0.500001 0.000000 1.000000 0.000000 0.306641 0.500000 255 255 255
-3.500000 4.000000 0.499999 0.000000 1.000000 -0.000000 0.306641 0.500000 255 255 255
2.500000 6.000000 0.499999 0.000000 1.000000 0.000000 0.306641 0.500000 255 255 255
2.500000 6.000000 -0.500001 0.000000 1.000000 0.000000 0.306641 0.500000 255 255 255
-3.500000 6.000000 -0.500001 0.000000 1.000000 0.000000 0.306641 0.500000 255 255 255
3.500000 6.000000 3.499999 0.000000 1.000000 0.000000 0.306641 0.500000 255 255 255
3.500000 6.000000 0.499999 0.000000 1.000000 0.000000 0.306641 0.500000 255 255 255
-3.500000 6.000000 3.499999 0.000000 1.000000 -0.000000 0.306641 0.500000 255 255 255
2.500000 0.999999 -3.500000 0.000000 1.000000 -0.000001 0.306641 0.500000 255 255 255
0.500000 0.999999 -3.500000 0.000000 1.000000 -0.000001 0.306641 0.500000 255 255 255
2.500000 1.000000 -2.500000 0.000000 1.000000 -0.000001 0.306641 0.500000 255 255 255
0.500000 1.000000 -2.500000 0.000000 1.000000 -0.000001 0.306641 0.500000 255 255 255
-0.500000 0.999999 -3.500000 0.000000 1.000000 -0.000001 0.306641 0.500000 255 255 255
-3.500000 0.999999 -3.500000 0.000000 1.000000 -0.000001 0.306641 0.500000 255 255 255
-0.500000 1.000000 -2.500000 0.000000 1.000000 -0.000001 0.306641 0.500000 255 255 255
-3.500000 1.000000 -2.500000 0.000000 1.000000 -0.000001 0.306641 0.500000 255 255 255
3.500000 1.000000 -0.500000 -0.000000 1.000000 0.000000 0.306641 0.500000 255 255 255
0.500000 1.000000 -0.500000 -0.000000 1.000000 0.000000 0.306641 0.500000 255 255 255
3.500000 1.000000 2.500000 -0.000000 1.000000 0.000000 0.306641 0.500000 255 255 255
2.500000 1.000000 2.500000 -0.000000 1.000000 0.000000 0.306641 0.500000 255 255 255
-0.500000 1.000000 -0.500000 -0.000000 1.000000 0.000000 0.306641 0.500000 255 255 255
-3.500000 1.000000 -0.500000 -0.000000 1.000000 0.000000 0.306641 0.500000 255 255 255
-2.500000 1.000000 2.500000 -0.000000 1.000000 0.000000 0.306641 0.500000 255 255 255
-3.500000 1.000000 2.500000 -0.000000 1.000000 0.000000 0.306641 0.500000 255 255 255
2.500000 1.000000 2.500000 0.000001 1.000000 -0.000001 0.306641 0.500000 255 255 255
0.500000 1.000000 -0.500000 0.000001 1.000000 -0.000001 0.306641 0.500000 255 255 255
2.500000 1.000001 3.500000 0.000001 1.000000 -0.000001 0.306641 0.500000 255 255 255
2.500000 1.000001 3.500000 0.000000 1.000000 -0.000000 0.306641 0.500000 255 255 255
0.500000 1.000001 3.500000 0.000000 1.000000 -0.000000 0.306641 0.500000 255 255 255
-0.500000 1.000001 3.500000 -0.000000 1.000000 -0.000000 0.306641 0.500000 255 255 255
-0.500000 1.000001 3.500000 0.000000 1.000000 -0.000001 0.306641 0.500000 255 255 255
-2.500000 1.000000 2.500000 0.000000 1.000000 -0.000001 0.306641 0.500000 255 255 255
-2.500000 1.000001 3.500000 0.000000 1.000000 -0.000001 0.306641 0.500000 255 255 255
0.500000 3.000000 -3.500000 -0.000000 1.000000 0.000000 0.306641 0.500000 255 255 255
-3.500000 3.000000 -3.500000 -0.000000 1.000000 0.000000 0.306641 0.500000 255 255 255
0.500000 3.000000 -2.500000 -0.000000 1.000000 0.000000 0.306641 0.500000 255 255 255
-3.500000 3.000000 -2.500000 -0.000000 1.000000 0.000000 0.306641 0.500000 255 255 255
0.500000 3.000000 2.500000 -0.000000 1.000000 0.000000 0.306641 0.500000 255 255 255
-3.500000 3.000000 2.500000 -0.000000 1.000000 0.000000 0.306641 0.500000 255 255 255
0.500000 3.000000 3.500000 -0.000000 1.000000 0.000000 0.306641 0.500000 255 255 255
-3.500000 3.000000 3.500000 -0.000000 1.000000 0.000000 0.306641 0.500000 255 255 255
3.500000 4.000000 -3.500001 -0.000000 1.000000 0.000000 0.306641 0.500000 255 255 255
2.500000 4.000000 -3.500001 -0.000000 1.000000 0.000000 0.306641 0.500000 255 255 255
3.500000 4.000000 -0.500001 -0.000000 1.000000 0.000000 0.306641 0.500000 255 255 255
2.500000 4.000000 -0.500001 -0.000000 1.000000 0.000000 0.306641 0.500000 255 255 255
1.500000 4.000000 -3.500001 -0.000000 1.000000 0.000000 0.306641 0.500000 255 255 255
0.500000 4.000000 -3.500001 -0.000000 1.000000 0.000000 0.306641 0.500000 255 255 255
1.500000 4.000000 -0.500001 -0.000000 1.000000 0.000000 0.306641 0.500000 255 255 255
0.500000 4.000000 -0.500001 -0.000000 1.000000 0.000000 0.306641 0.500000 255 255 255
3.500000 4.000000 2.499999 -0.000000 1.000000 0.000000 0.306641 0.500000 255 255 255
2.500000 4.000000 2.499999 -0.000000 1.000000 0.000000 0.306641 0.500000 255 255 255
3.500000 4.000000 3.499999 -0.000000 1.000000 0.000000 0.306641 0.500000 255 255 255
2.500000 4.000000 3.499999 -0.000000 1.000000 0.000000 0.306641 0.500000 255 255 255
1.500000 4.000000 2.499999 -0.000000 1.000000 0.000000 0.306641 0.500000 255 255 255
0.500000 4.000000 2.499999 -0.000000 1.000000 0.000000 0.306641 0.500000 255 255 255
1.500000 4.000000 3.499999 -0.000000 1.000000 0.000000 0.306641 0.500000 255 255 255
0.500000 4.000000 3.499999 -0.000000 1.000000 0.000000 0.306641 0.500000 255 255 255
1.500000 5.000000 -0.500001 -0.000000 1.000000 0.000000 0.306641 0.500000 255 255 255
-3.500000 5.000000 -0.500001 -0.000000 1.000000 0.000000 0.306641 0.500000 255 255 255
1.500000 5.000000 0.499999 -0.000000 1.000000 0.000000 0.306641 0.500000 255 255 255
-3.500000 5.000000 0.499999 -0.000000 1.000000 0.000000 0.306641 0.500000 255 255 255
3.500000 7.000000 -0.500001 -0.000000 1.000000 0.000000 0.306641 0.500000 255 255 255
-3.500000 7.000000 -0.500001 -0.000000 1.000000 0.000000 0.306641 0.500000 255 255 255
3.500000 7.000000 3.499999 -0.000000 1.000000 0.000000 0.306641 0.500000 255 255 255
-3.500000 7.000000 3.499999 -0.000000 1.000000 0.000000 0.306641 0.500000 255 255 255
3 0 1 2
3 1 0 3
3 4 5 6
3 7 4 6
3 7 8 4
3 9 8 7
3 10 1 3
3 11 1 10
3 12 8 9
3 13 12 9
3 13 14 12
3 15 14 13
3 16 17 18
3 19 16 18
3 19 20 16
3 21 20 19
3 22 23 24
3 25 23 22
3 26 20 21
3 27 20 26
3 28 29 30
3 31 28 30
3 32 33 34
3 35 32 34
3 36 37 38
3 39 36 38
3 40 41 42
3 40 43 41
3 41 43 44
3 43 45 44
3 46 47 48
3 47 49 48
3 45 50 44
3 50 51 44
3 52 53 54
3 53 55 54
3 56 57 58
3 57 59 58
3 60 61 62
3 62 61 63
3 61 64 63
3 64 65 63
3 66 67 68
3 67 69 68
3 70 71 72
3 72 71 73
3 74 75 76
3 76 75 77
3 78 79 80
3 80 79 81
3 77 75 82
3 82 75 83
3 84 85 86
3 86 85 87
3 88 89 90
3 90 89 91
3 92 93 94
3 95 93 92
3 96 92 94
3 97 92 96
3 98 99 100
3 101 102 103
3 104 105 106
3 107 105 104
3 108 98 100
3 109 98 108
3 110 111 112
3 113 111 110
3 114 115 116
3 117 115 114
3 118 119 120
3 121 122 123
3 124 122 121
3 125 119 118
3 126 119 125
3 127 111 113
3 128 111 127
3 129 130 131
3 132 129 131
3 133 134 135
3 136 137 138
3 139 134 133
3 140 141 139
3 142 139 133
3 142 140 139
3 143 144 145
3 144 146 145
3 143 147 144
3 147 148 144
3 149 150 151
3 152 153 154
3 153 155 154
3 149 156 150
3 156 157 150
3 158 159 160
3 160 159 161
3 162 163 164
3 165 166 167
3 168 169 170
3 170 169 171
3 172 173 174
3 174 173 175
3 172 174 176
3 176 174 177
3 178 179 180
3 181 182 183
3 184 185 186
3 178 180 187
3 184 186 188
3 186 187 188
3 187 180 189
3 188 187 189
3 190 191 192
3 192 191 193
3 194 195 196
3 197 194 196
3 198 199 200
3 201 198 200
3 202 203 204
3 205 202 204
3 206 207 208
3 209 206 208
3 210 211 212
3 213 210 212
3 214 215 216
3 217 214 216
3 218 219 220
3 221 218 220
3 222 223 224
3 225 222 224
3 226 227 228
3 229 226 228
3 230 231 232
3 233 234 230
3 235 230 232
3 235 233 230
3 236 237 238
3 238 237 239
3 240 241 242
3 242 241 243
3 244 245 246
3 246 245 247
3 248 249 250
3 250 249 251
3 252 253 254
3 255 245 256
3 248 250 257
3 258 259 260
3 261 262 263
3 263 262 264
3 265 266 267
3 267 266 268
3 269 270 271
3 271 270 272
3 273 274 275
3 275 274 276
3 277 278 279
3 279 278 280
3 281 282 283
3 283 282 284
3 285 286 287
3 287 286 288
3 289 290 291
3 291 290 292
